# xmcd
#
# Track frame offsets:
#	150
#	23730
#	39784
#	65180
#	79561
#	110188
#	128061
#	145292
#	162631
#	180826
#	192905
#	208425
#	227475
#	243683
#	257346
#	273764
#	281808
#	300678
#
# Disc length: 4329 seconds
#
# Revision: 0
# Processed by: cddbd v1.5.1PL2 Copyright (c) Steve Scherf et al.
# Submitted via: audiograbber 1.83.01
#
DISCID=0310e712
DTITLE=Александр Розембаум - Барды России
DYEAR=2003
DGENRE=Chanson
TTITLE0=Подари,Господь,мелодию
TTITLE1=Транссибирская магистраль
TTITLE2=Зима
TTITLE3=Ночной разговор
TTITLE4=Ты,любовь моя
TTITLE5=Спокойной ночи
TTITLE6=Старые скамейки
TTITLE7=Воскресенье
TTITLE8=Где нибудь,как нибуть
TTITLE9=Одинокий волк
TTITLE10=Мои руки
TTITLE11=Голуби
TTITLE12=Лаки
TTITLE13=День рождения
TTITLE14=Три сестры
TTITLE15=Первый-второй
TTITLE16=Расставание
TTITLE17=Колыбельная
EXTD=
EXTT0=Шансон
EXTT1=
EXTT2=
EXTT3=
EXTT4=
EXTT5=
EXTT6=
EXTT7=
EXTT8=
EXTT9=
EXTT10=
EXTT11=
EXTT12=
EXTT13=
EXTT14=
EXTT15=
EXTT16=
EXTT17=
PLAYORDER=
